<svg xmlns="http://www.w3.org/2000/svg" xmlns:xlink="http://www.w3.org/1999/xlink" id="Layer_1" x="0px" y="0px" width="174.94px" height="76.188px" viewBox="0 0 174.94 76.188" xml:space="preserve">
<path fill="#1D76B6" d="M17.563,7.563l17.709,38.955h-5.368l-4.353-9.598H9.631l-4.303,9.598H0L17.563,7.563z M17.549,19.271  l-6.001,13.378h12.066L17.549,19.271z"></path>
<path fill="#1D76B6" d="M37.11,9.008h20.788v5.122H42.175v9.362h15.724v5.064H42.175v12.897h15.724v5.064H37.11V9.008z"></path>
<path fill="#1D76B6" d="M100.21,9.008h8.126c4.044,0,7.336,1.004,9.88,3.016c2.541,2.012,3.812,4.588,3.812,7.727  c0,2.512-0.822,4.73-2.466,6.654c-1.646,1.922-4.21,3.275-7.695,4.061l10.898,16.053h-5.879l-10.404-15.429h-1.148v15.429h-5.123  V9.008z M105.333,13.541v13.072c7.557,0.158,11.337-2.031,11.337-6.564c0-1.591-0.443-2.891-1.325-3.901  c-0.884-1.012-2.062-1.698-3.535-2.062C110.339,13.722,108.179,13.541,105.333,13.541z"></path>
<path fill="#1D76B6" d="M130.984,9.008h5.064v37.51h-5.064V9.008z"></path>
<path fill="#1D76B6" d="M156.22,7.563l17.711,38.955h-5.369l-4.354-9.598h-15.917l-4.305,9.598h-5.329L156.22,7.563z   M156.206,19.271l-6.001,13.378h12.066L156.206,19.271z"></path>
<g>
	<g>
		<g>
			<g>
				<path fill="#BABABA" d="M113.899,48.661c-8.712-4.459-17.502-6.969-26.197-7.5v-6.622h3.995v-4.84h-3.995V0L59.434,34.539      h23.199v6.536c-0.031,0-0.062,0-0.095,0c-8.239,0.246-16.487,2.244-25.218,6.113c-1.083,0.48-1.572,1.748-1.092,2.832      c0.48,1.082,1.747,1.572,2.832,1.092c18.356-8.133,35.16-7.699,52.885,1.369c0.312,0.16,0.646,0.236,0.975,0.236      c0.781,0,1.532-0.428,1.912-1.17C115.372,50.493,114.955,49.2,113.899,48.661z M69.357,29.699l13.146-16.523h0.13v16.523H69.357      z"></path>
			</g>
		</g>
		<path fill="#BABABA" d="M72.217,17.157l8.019-9.797c-1.149-2.208-3.454-3.718-6.114-3.718c-3.807,0-6.894,3.087-6.894,6.895    C67.228,13.682,69.337,16.33,72.217,17.157z"></path>
	</g>
</g>
<g>
	<path fill="#1D76B6" d="M31.346,55.227h1.24l3.023,7.693H34l-0.595-1.512h-2.849l-0.582,1.512h-1.602L31.346,55.227z    M31.966,57.747l-0.873,2.268h1.765L31.966,57.747z"></path>
	<path fill="#1D76B6" d="M36.833,55.315h0.983v7.605h-0.983V55.315z"></path>
	<path fill="#1D76B6" d="M39.43,55.315h0.983v7.605H39.43V55.315z"></path>
	<path fill="#1D76B6" d="M41.709,56.499c0-0.211,0.075-0.393,0.227-0.547c0.15-0.154,0.33-0.232,0.537-0.232   c0.203,0,0.38,0.078,0.528,0.232c0.149,0.154,0.224,0.336,0.224,0.547c0,0.215-0.074,0.398-0.224,0.551   c-0.148,0.152-0.325,0.229-0.528,0.229c-0.207,0-0.387-0.076-0.537-0.229C41.784,56.897,41.709,56.713,41.709,56.499z    M41.986,58.086h0.973v4.834h-0.973V58.086z"></path>
	<path fill="#1D76B6" d="M48.415,58.086h0.984v4.834h-0.984v-0.961c-0.479,0.73-1.072,1.096-1.78,1.096   c-0.615,0-1.14-0.25-1.575-0.75s-0.652-1.107-0.652-1.822c0-0.676,0.219-1.266,0.658-1.771s0.954-0.76,1.547-0.76   c0.365,0,0.712,0.104,1.04,0.311s0.582,0.477,0.763,0.809V58.086z M48.551,60.518c0-0.441-0.152-0.818-0.459-1.133   c-0.306-0.314-0.672-0.473-1.099-0.473c-0.415,0-0.777,0.156-1.087,0.469s-0.465,0.68-0.465,1.102c0,0.457,0.151,0.846,0.453,1.166   s0.668,0.48,1.099,0.48c0.427,0,0.793-0.158,1.099-0.477C48.398,61.334,48.551,60.956,48.551,60.518z"></path>
	<path fill="#1D76B6" d="M50.752,62.92v-4.834h0.962v0.803c0.282-0.324,0.538-0.561,0.769-0.711c0.229-0.15,0.486-0.227,0.769-0.227   c0.423,0,0.783,0.145,1.083,0.434s0.449,0.637,0.449,1.043v3.492H53.8v-3.193c0-0.262-0.082-0.479-0.246-0.65   s-0.372-0.258-0.625-0.258c-0.327,0-0.61,0.145-0.848,0.432s-0.356,0.633-0.356,1.039v2.631H50.752z"></path>
	<path fill="#1D76B6" d="M59.562,61.444v1.166c-0.501,0.297-0.987,0.445-1.458,0.445c-0.645,0-1.209-0.25-1.693-0.752   s-0.727-1.084-0.727-1.744c0-0.75,0.241-1.371,0.724-1.865s1.087-0.742,1.814-0.742c0.434,0,0.88,0.117,1.34,0.352v1.137   c-0.493-0.328-0.961-0.492-1.401-0.492c-0.407,0-0.764,0.148-1.069,0.445c-0.305,0.297-0.458,0.645-0.458,1.043   c0,0.449,0.144,0.828,0.43,1.135c0.287,0.307,0.638,0.459,1.052,0.459C58.537,62.03,59.021,61.834,59.562,61.444z"></path>
	<path fill="#1D76B6" d="M65.234,60.7h-3.98c0.087,0.496,0.284,0.859,0.591,1.088c0.308,0.229,0.642,0.342,1.004,0.342   c0.558,0,1.025-0.24,1.402-0.721l0.718,0.562c-0.539,0.723-1.261,1.084-2.165,1.084c-0.694,0-1.274-0.246-1.741-0.738   c-0.468-0.492-0.701-1.104-0.701-1.834c0-0.684,0.236-1.275,0.709-1.777c0.474-0.502,1.051-0.754,1.733-0.754   c0.671,0,1.245,0.256,1.725,0.766C65.007,59.227,65.242,59.887,65.234,60.7z M61.356,59.885h2.85   c-0.317-0.664-0.784-0.996-1.402-0.996C62.129,58.889,61.646,59.221,61.356,59.885z"></path>
	<path fill="#1D76B6" d="M69.415,60.483c0-0.66,0.252-1.246,0.755-1.76s1.081-0.771,1.733-0.771c0.671,0,1.257,0.254,1.758,0.76   c0.502,0.506,0.752,1.096,0.752,1.771c0,0.68-0.246,1.279-0.737,1.797c-0.492,0.518-1.061,0.775-1.705,0.775   c-0.689,0-1.288-0.256-1.795-0.768S69.415,61.174,69.415,60.483z M73.464,60.487c0-0.412-0.151-0.768-0.453-1.072   c-0.301-0.303-0.659-0.455-1.074-0.455c-0.426,0-0.792,0.154-1.1,0.461c-0.307,0.309-0.46,0.674-0.46,1.102   c0,0.406,0.155,0.764,0.466,1.068c0.312,0.305,0.676,0.457,1.094,0.457c0.407,0,0.764-0.156,1.069-0.469   C73.311,61.266,73.464,60.901,73.464,60.487z"></path>
	<path fill="#1D76B6" d="M78.339,55.391v1.031c-0.287-0.199-0.533-0.299-0.741-0.299c-0.173,0-0.309,0.066-0.406,0.199   c-0.099,0.133-0.147,0.316-0.147,0.555v1.209h1.295v0.932h-1.295v3.902h-0.983v-3.902h-0.859v-0.932h0.859v-1.141   c0-0.549,0.136-0.988,0.409-1.314c0.273-0.328,0.639-0.492,1.095-0.492C77.79,55.139,78.049,55.223,78.339,55.391z"></path>
	<path fill="#1D76B6" d="M83.143,55.227h4.178v1.523h-2.578v1.553h2.578v1.5h-2.578v1.594h2.578v1.523h-4.178V55.227z"></path>
	<path fill="#1D76B6" d="M88.645,58.086h1.193l1.039,1.375l1.018-1.375h1.183l-1.624,2.182l1.964,2.652h-1.172l-1.376-1.848   l-1.391,1.848h-1.161l1.968-2.66L88.645,58.086z"></path>
	<path fill="#1D76B6" d="M97.754,61.444v1.166c-0.501,0.297-0.987,0.445-1.458,0.445c-0.645,0-1.209-0.25-1.693-0.752   s-0.727-1.084-0.727-1.744c0-0.75,0.241-1.371,0.724-1.865s1.087-0.742,1.814-0.742c0.434,0,0.88,0.117,1.34,0.352v1.137   c-0.493-0.328-0.961-0.492-1.401-0.492c-0.407,0-0.764,0.148-1.069,0.445c-0.305,0.297-0.458,0.645-0.458,1.043   c0,0.449,0.144,0.828,0.43,1.135c0.287,0.307,0.638,0.459,1.052,0.459C96.729,62.03,97.212,61.834,97.754,61.444z"></path>
	<path fill="#1D76B6" d="M103.427,60.7h-3.98c0.087,0.496,0.284,0.859,0.591,1.088c0.308,0.229,0.642,0.342,1.004,0.342   c0.558,0,1.025-0.24,1.402-0.721l0.718,0.562c-0.539,0.723-1.261,1.084-2.165,1.084c-0.694,0-1.274-0.246-1.741-0.738   c-0.468-0.492-0.701-1.104-0.701-1.834c0-0.684,0.236-1.275,0.709-1.777c0.474-0.502,1.051-0.754,1.733-0.754   c0.671,0,1.245,0.256,1.725,0.766C103.199,59.227,103.435,59.887,103.427,60.7z M99.549,59.885h2.85   c-0.317-0.664-0.784-0.996-1.402-0.996C100.321,58.889,99.839,59.221,99.549,59.885z"></path>
	<path fill="#1D76B6" d="M104.751,55.315h0.983v7.605h-0.983V55.315z"></path>
	<path fill="#1D76B6" d="M107.348,55.315h0.983v7.605h-0.983V55.315z"></path>
	<path fill="#1D76B6" d="M114.467,60.7h-3.98c0.087,0.496,0.284,0.859,0.591,1.088c0.308,0.229,0.642,0.342,1.004,0.342   c0.558,0,1.025-0.24,1.402-0.721l0.718,0.562c-0.539,0.723-1.261,1.084-2.165,1.084c-0.694,0-1.274-0.246-1.741-0.738   c-0.468-0.492-0.701-1.104-0.701-1.834c0-0.684,0.236-1.275,0.709-1.777c0.474-0.502,1.051-0.754,1.733-0.754   c0.671,0,1.245,0.256,1.725,0.766C114.239,59.227,114.475,59.887,114.467,60.7z M110.589,59.885h2.85   c-0.317-0.664-0.784-0.996-1.402-0.996C111.361,58.889,110.879,59.221,110.589,59.885z"></path>
	<path fill="#1D76B6" d="M115.475,62.92v-4.834h0.962v0.803c0.282-0.324,0.538-0.561,0.769-0.711   c0.229-0.15,0.486-0.227,0.769-0.227c0.423,0,0.783,0.145,1.083,0.434s0.449,0.637,0.449,1.043v3.492h-0.983v-3.193   c0-0.262-0.082-0.479-0.246-0.65s-0.372-0.258-0.625-0.258c-0.327,0-0.61,0.145-0.848,0.432s-0.356,0.633-0.356,1.039v2.631   H115.475z"></path>
	<path fill="#1D76B6" d="M124.285,61.444v1.166c-0.501,0.297-0.987,0.445-1.458,0.445c-0.645,0-1.209-0.25-1.693-0.752   s-0.727-1.084-0.727-1.744c0-0.75,0.241-1.371,0.724-1.865s1.087-0.742,1.814-0.742c0.434,0,0.88,0.117,1.34,0.352v1.137   c-0.493-0.328-0.961-0.492-1.401-0.492c-0.407,0-0.764,0.148-1.069,0.445c-0.305,0.297-0.458,0.645-0.458,1.043   c0,0.449,0.144,0.828,0.43,1.135c0.287,0.307,0.638,0.459,1.052,0.459C123.26,62.03,123.743,61.834,124.285,61.444z"></path>
	<path fill="#1D76B6" d="M129.957,60.7h-3.98c0.087,0.496,0.284,0.859,0.591,1.088c0.308,0.229,0.642,0.342,1.004,0.342   c0.558,0,1.025-0.24,1.402-0.721l0.718,0.562c-0.539,0.723-1.261,1.084-2.165,1.084c-0.694,0-1.274-0.246-1.741-0.738   c-0.468-0.492-0.701-1.104-0.701-1.834c0-0.684,0.236-1.275,0.709-1.777c0.474-0.502,1.051-0.754,1.733-0.754   c0.671,0,1.245,0.256,1.725,0.766C129.729,59.227,129.965,59.887,129.957,60.7z M126.079,59.885h2.85   c-0.317-0.664-0.784-0.996-1.402-0.996C126.852,58.889,126.369,59.221,126.079,59.885z"></path>
	<path fill="#1D76B6" d="M137.214,55.391v1.031c-0.287-0.199-0.533-0.299-0.741-0.299c-0.173,0-0.309,0.066-0.406,0.199   c-0.099,0.133-0.147,0.316-0.147,0.555v1.209h1.295v0.932h-1.295v3.902h-0.983v-3.902h-0.859v-0.932h0.859v-1.141   c0-0.549,0.136-0.988,0.409-1.314c0.273-0.328,0.639-0.492,1.095-0.492C136.665,55.139,136.924,55.223,137.214,55.391z"></path>
	<path fill="#1D76B6" d="M137.82,60.483c0-0.66,0.252-1.246,0.755-1.76s1.081-0.771,1.733-0.771c0.671,0,1.257,0.254,1.758,0.76   c0.502,0.506,0.752,1.096,0.752,1.771c0,0.68-0.246,1.279-0.737,1.797c-0.492,0.518-1.061,0.775-1.705,0.775   c-0.689,0-1.288-0.256-1.795-0.768S137.82,61.174,137.82,60.483z M141.869,60.487c0-0.412-0.151-0.768-0.453-1.072   c-0.301-0.303-0.659-0.455-1.074-0.455c-0.426,0-0.792,0.154-1.1,0.461c-0.307,0.309-0.46,0.674-0.46,1.102   c0,0.406,0.155,0.764,0.466,1.068c0.312,0.305,0.676,0.457,1.094,0.457c0.407,0,0.764-0.156,1.069-0.469   C141.716,61.266,141.869,60.901,141.869,60.487z"></path>
	<path fill="#1D76B6" d="M145.025,58.086v0.996c0.219-0.398,0.433-0.686,0.642-0.863s0.481-0.268,0.817-0.268   c0.094,0,0.229,0.023,0.406,0.07l-0.299,1.02c-0.189-0.039-0.313-0.059-0.374-0.059c-0.331,0-0.609,0.121-0.834,0.361   c-0.224,0.24-0.336,0.539-0.336,0.898v2.678h-0.983v-4.834H145.025z"></path>
	<path fill="#1D76B6" d="M0.119,66.227h2.445c0.744,0,1.332,0.203,1.763,0.609c0.432,0.406,0.648,0.955,0.648,1.646   c0,0.395-0.099,0.805-0.297,1.229c-0.198,0.426-0.563,0.76-1.096,1.002L5.66,73.92H3.822L1.9,70.944H1.719v2.977h-1.6V66.227z    M1.73,67.598v2.004h0.346c0.836,0,1.254-0.354,1.254-1.061c0-0.289-0.108-0.518-0.326-0.688c-0.217-0.17-0.519-0.256-0.905-0.256   H1.73z"></path>
	<path fill="#1D76B6" d="M11.508,71.7h-3.98c0.086,0.496,0.283,0.859,0.591,1.088c0.307,0.229,0.642,0.342,1.003,0.342   c0.558,0,1.025-0.24,1.402-0.721l0.718,0.562c-0.539,0.723-1.261,1.084-2.166,1.084c-0.693,0-1.274-0.246-1.741-0.738   s-0.701-1.104-0.701-1.834c0-0.684,0.237-1.275,0.709-1.777c0.473-0.502,1.051-0.754,1.733-0.754c0.671,0,1.246,0.256,1.725,0.766   S11.515,70.887,11.508,71.7z M7.629,70.885h2.85c-0.316-0.664-0.784-0.996-1.402-0.996C8.402,69.889,7.919,70.221,7.629,70.885z"></path>
	<path fill="#1D76B6" d="M15.512,69.661l-0.656,0.598c-0.168-0.125-0.316-0.219-0.439-0.283c-0.125-0.064-0.271-0.098-0.441-0.098   c-0.4,0-0.6,0.152-0.6,0.457c0,0.219,0.254,0.432,0.76,0.637c0.508,0.207,0.873,0.434,1.094,0.68   c0.223,0.244,0.334,0.541,0.334,0.889c0,0.406-0.16,0.76-0.48,1.062s-0.697,0.453-1.131,0.453c-0.659,0-1.2-0.316-1.622-0.949   l0.774-0.387c0.271,0.273,0.555,0.41,0.848,0.41c0.203,0,0.383-0.057,0.535-0.172s0.229-0.25,0.229-0.402   c0-0.27-0.268-0.512-0.803-0.727s-0.906-0.434-1.111-0.654c-0.205-0.221-0.308-0.492-0.308-0.816c0-0.402,0.146-0.736,0.438-1.004   c0.292-0.268,0.659-0.402,1.1-0.402S14.965,69.188,15.512,69.661z"></path>
	<path fill="#1D76B6" d="M21.269,71.7h-3.98c0.087,0.496,0.284,0.859,0.591,1.088c0.308,0.229,0.642,0.342,1.004,0.342   c0.558,0,1.025-0.24,1.402-0.721l0.718,0.562c-0.539,0.723-1.261,1.084-2.165,1.084c-0.694,0-1.274-0.246-1.741-0.738   c-0.468-0.492-0.701-1.104-0.701-1.834c0-0.684,0.236-1.275,0.709-1.777c0.474-0.502,1.051-0.754,1.733-0.754   c0.671,0,1.245,0.256,1.725,0.766C21.041,70.227,21.276,70.887,21.269,71.7z M17.391,70.885h2.85   c-0.317-0.664-0.784-0.996-1.402-0.996C18.163,69.889,17.681,70.221,17.391,70.885z"></path>
	<path fill="#1D76B6" d="M26.387,69.086h0.984v4.834h-0.984v-0.961c-0.479,0.73-1.072,1.096-1.78,1.096   c-0.615,0-1.14-0.25-1.575-0.75s-0.652-1.107-0.652-1.822c0-0.676,0.219-1.266,0.658-1.771s0.954-0.76,1.547-0.76   c0.365,0,0.712,0.104,1.04,0.311s0.582,0.477,0.763,0.809V69.086z M26.522,71.518c0-0.441-0.152-0.818-0.459-1.133   c-0.306-0.314-0.672-0.473-1.099-0.473c-0.415,0-0.777,0.156-1.087,0.469s-0.465,0.68-0.465,1.102c0,0.457,0.151,0.846,0.453,1.166   s0.668,0.48,1.099,0.48c0.427,0,0.793-0.158,1.099-0.477C26.37,72.334,26.522,71.956,26.522,71.518z"></path>
	<path fill="#1D76B6" d="M30.002,69.086v0.996c0.219-0.398,0.433-0.686,0.642-0.863s0.481-0.268,0.817-0.268   c0.094,0,0.229,0.023,0.406,0.07l-0.299,1.02c-0.189-0.039-0.313-0.059-0.374-0.059c-0.331,0-0.609,0.121-0.834,0.361   c-0.224,0.24-0.336,0.539-0.336,0.898v2.678h-0.983v-4.834H30.002z"></path>
	<path fill="#1D76B6" d="M36.318,72.444v1.166c-0.501,0.297-0.987,0.445-1.458,0.445c-0.645,0-1.209-0.25-1.693-0.752   s-0.727-1.084-0.727-1.744c0-0.75,0.241-1.371,0.724-1.865s1.087-0.742,1.814-0.742c0.434,0,0.88,0.117,1.34,0.352v1.137   c-0.493-0.328-0.961-0.492-1.401-0.492c-0.407,0-0.764,0.148-1.069,0.445c-0.305,0.297-0.458,0.645-0.458,1.043   c0,0.449,0.144,0.828,0.43,1.135c0.287,0.307,0.638,0.459,1.052,0.459C35.293,73.03,35.776,72.834,36.318,72.444z"></path>
	<path fill="#1D76B6" d="M37.581,66.315h0.983v3.562c0.271-0.324,0.524-0.559,0.761-0.705c0.235-0.146,0.522-0.221,0.862-0.221   c0.396,0,0.737,0.158,1.025,0.473c0.289,0.314,0.433,0.689,0.433,1.127v3.369h-0.983v-3.082c0-0.305-0.074-0.549-0.224-0.732   c-0.148-0.184-0.346-0.275-0.591-0.275c-0.354,0-0.656,0.139-0.907,0.416s-0.376,0.613-0.376,1.008v2.666h-0.983V66.315z"></path>
	<path fill="#1D76B6" d="M50.106,69.086h0.984v4.834h-0.984v-0.961c-0.479,0.73-1.072,1.096-1.78,1.096   c-0.615,0-1.14-0.25-1.575-0.75s-0.652-1.107-0.652-1.822c0-0.676,0.219-1.266,0.658-1.771s0.954-0.76,1.547-0.76   c0.365,0,0.712,0.104,1.04,0.311s0.582,0.477,0.763,0.809V69.086z M50.242,71.518c0-0.441-0.152-0.818-0.459-1.133   c-0.306-0.314-0.672-0.473-1.099-0.473c-0.415,0-0.777,0.156-1.087,0.469s-0.465,0.68-0.465,1.102c0,0.457,0.151,0.846,0.453,1.166   s0.668,0.48,1.099,0.48c0.427,0,0.793-0.158,1.099-0.477C50.09,72.334,50.242,71.956,50.242,71.518z"></path>
	<path fill="#1D76B6" d="M52.442,73.92v-4.834h0.962v0.803c0.282-0.324,0.538-0.561,0.769-0.711c0.229-0.15,0.486-0.227,0.769-0.227   c0.423,0,0.783,0.145,1.083,0.434s0.449,0.637,0.449,1.043v3.492H55.49v-3.193c0-0.262-0.082-0.479-0.246-0.65   s-0.372-0.258-0.625-0.258c-0.327,0-0.61,0.145-0.848,0.432s-0.356,0.633-0.356,1.039v2.631H52.442z"></path>
	<path fill="#1D76B6" d="M61.666,66.315h0.973v7.605h-0.961v-1.008c-0.465,0.762-1.072,1.143-1.823,1.143   c-0.608,0-1.129-0.252-1.562-0.756c-0.435-0.504-0.651-1.109-0.651-1.816c0-0.691,0.221-1.285,0.662-1.783s0.969-0.748,1.58-0.748   c0.366,0,0.707,0.105,1.024,0.316s0.57,0.486,0.759,0.826V66.315z M61.779,71.495c0-0.434-0.153-0.809-0.459-1.127   s-0.67-0.479-1.093-0.479c-0.438,0-0.81,0.156-1.113,0.467s-0.456,0.689-0.456,1.139c0,0.43,0.154,0.807,0.465,1.129   c0.31,0.322,0.67,0.482,1.081,0.482c0.438,0,0.811-0.156,1.116-0.469S61.779,71.944,61.779,71.495z"></path>
	<path fill="#1D76B6" d="M67.47,66.227h1.6v7.693h-1.6V66.227z"></path>
	<path fill="#1D76B6" d="M70.337,73.92v-4.834h0.962v0.803c0.282-0.324,0.538-0.561,0.769-0.711c0.229-0.15,0.486-0.227,0.769-0.227   c0.423,0,0.783,0.145,1.083,0.434s0.449,0.637,0.449,1.043v3.492h-0.983v-3.193c0-0.262-0.082-0.479-0.246-0.65   s-0.372-0.258-0.625-0.258c-0.327,0-0.61,0.145-0.848,0.432s-0.356,0.633-0.356,1.039v2.631H70.337z"></path>
	<path fill="#1D76B6" d="M75.467,73.92v-4.834h0.962v0.803c0.282-0.324,0.538-0.561,0.769-0.711c0.229-0.15,0.486-0.227,0.769-0.227   c0.423,0,0.783,0.145,1.083,0.434s0.449,0.637,0.449,1.043v3.492h-0.983v-3.193c0-0.262-0.082-0.479-0.246-0.65   s-0.372-0.258-0.625-0.258c-0.327,0-0.61,0.145-0.848,0.432s-0.356,0.633-0.356,1.039v2.631H75.467z"></path>
	<path fill="#1D76B6" d="M80.518,71.483c0-0.66,0.252-1.246,0.755-1.76s1.081-0.771,1.733-0.771c0.671,0,1.257,0.254,1.758,0.76   c0.502,0.506,0.752,1.096,0.752,1.771c0,0.68-0.246,1.279-0.737,1.797c-0.492,0.518-1.061,0.775-1.705,0.775   c-0.689,0-1.288-0.256-1.795-0.768S80.518,72.174,80.518,71.483z M84.566,71.487c0-0.412-0.151-0.768-0.453-1.072   c-0.301-0.303-0.659-0.455-1.074-0.455c-0.426,0-0.792,0.154-1.1,0.461c-0.307,0.309-0.46,0.674-0.46,1.102   c0,0.406,0.155,0.764,0.466,1.068c0.312,0.305,0.676,0.457,1.094,0.457c0.407,0,0.764-0.156,1.069-0.469   C84.413,72.266,84.566,71.901,84.566,71.487z"></path>
	<path fill="#1D76B6" d="M86.144,69.086h1.031l1.334,2.795l1.297-2.795h1.037l-2.35,5.016L86.144,69.086z"></path>
	<path fill="#1D76B6" d="M95.452,69.086h0.984v4.834h-0.984v-0.961c-0.479,0.73-1.072,1.096-1.78,1.096   c-0.615,0-1.14-0.25-1.575-0.75s-0.652-1.107-0.652-1.822c0-0.676,0.219-1.266,0.658-1.771s0.954-0.76,1.547-0.76   c0.365,0,0.712,0.104,1.04,0.311s0.582,0.477,0.763,0.809V69.086z M95.588,71.518c0-0.441-0.152-0.818-0.459-1.133   c-0.306-0.314-0.672-0.473-1.099-0.473c-0.415,0-0.777,0.156-1.087,0.469s-0.465,0.68-0.465,1.102c0,0.457,0.151,0.846,0.453,1.166   s0.668,0.48,1.099,0.48c0.427,0,0.793-0.158,1.099-0.477C95.436,72.334,95.588,71.956,95.588,71.518z"></path>
	<path fill="#1D76B6" d="M98.286,67.68h0.983v1.406h0.973v0.932H99.27v3.902h-0.983v-3.902h-0.774v-0.943h0.774V67.68z"></path>
	<path fill="#1D76B6" d="M100.984,67.499c0-0.211,0.075-0.393,0.227-0.547c0.15-0.154,0.33-0.232,0.537-0.232   c0.203,0,0.38,0.078,0.528,0.232c0.149,0.154,0.224,0.336,0.224,0.547c0,0.215-0.074,0.398-0.224,0.551   c-0.148,0.152-0.325,0.229-0.528,0.229c-0.207,0-0.387-0.076-0.537-0.229C101.06,67.897,100.984,67.713,100.984,67.499z    M101.262,69.086h0.973v4.834h-0.973V69.086z"></path>
	<path fill="#1D76B6" d="M103.502,71.483c0-0.66,0.252-1.246,0.755-1.76s1.081-0.771,1.733-0.771c0.671,0,1.257,0.254,1.758,0.76   c0.502,0.506,0.752,1.096,0.752,1.771c0,0.68-0.246,1.279-0.737,1.797c-0.492,0.518-1.061,0.775-1.705,0.775   c-0.689,0-1.288-0.256-1.795-0.768S103.502,72.174,103.502,71.483z M107.551,71.487c0-0.412-0.151-0.768-0.453-1.072   c-0.301-0.303-0.659-0.455-1.074-0.455c-0.426,0-0.792,0.154-1.1,0.461c-0.307,0.309-0.46,0.674-0.46,1.102   c0,0.406,0.155,0.764,0.466,1.068c0.312,0.305,0.676,0.457,1.094,0.457c0.407,0,0.764-0.156,1.069-0.469   C107.397,72.266,107.551,71.901,107.551,71.487z"></path>
	<path fill="#1D76B6" d="M109.428,73.92v-4.834h0.962v0.803c0.282-0.324,0.538-0.561,0.769-0.711   c0.229-0.15,0.486-0.227,0.769-0.227c0.423,0,0.783,0.145,1.083,0.434s0.449,0.637,0.449,1.043v3.492h-0.983v-3.193   c0-0.262-0.082-0.479-0.246-0.65s-0.372-0.258-0.625-0.258c-0.327,0-0.61,0.145-0.848,0.432s-0.356,0.633-0.356,1.039v2.631   H109.428z"></path>
	<path fill="#1D76B6" d="M117.73,71.483c0-0.66,0.252-1.246,0.755-1.76s1.081-0.771,1.733-0.771c0.671,0,1.257,0.254,1.758,0.76   c0.502,0.506,0.752,1.096,0.752,1.771c0,0.68-0.246,1.279-0.737,1.797c-0.492,0.518-1.061,0.775-1.705,0.775   c-0.689,0-1.288-0.256-1.795-0.768S117.73,72.174,117.73,71.483z M121.779,71.487c0-0.412-0.151-0.768-0.453-1.072   c-0.301-0.303-0.659-0.455-1.074-0.455c-0.426,0-0.792,0.154-1.1,0.461c-0.307,0.309-0.46,0.674-0.46,1.102   c0,0.406,0.155,0.764,0.466,1.068c0.312,0.305,0.676,0.457,1.094,0.457c0.407,0,0.764-0.156,1.069-0.469   C121.626,72.266,121.779,71.901,121.779,71.487z"></path>
	<path fill="#1D76B6" d="M123.657,73.92v-4.834h0.962v0.803c0.282-0.324,0.538-0.561,0.769-0.711   c0.229-0.15,0.486-0.227,0.769-0.227c0.423,0,0.783,0.145,1.083,0.434s0.449,0.637,0.449,1.043v3.492h-0.983v-3.193   c0-0.262-0.082-0.479-0.246-0.65s-0.372-0.258-0.625-0.258c-0.327,0-0.61,0.145-0.848,0.432s-0.356,0.633-0.356,1.039v2.631   H123.657z"></path>
	<path fill="#1D76B6" d="M134.894,66.227h1.24l3.023,7.693h-1.609l-0.595-1.512h-2.849l-0.582,1.512h-1.602L134.894,66.227z    M135.514,68.747l-0.873,2.268h1.765L135.514,68.747z"></path>
	<path fill="#1D76B6" d="M144.903,71.7h-3.98c0.087,0.496,0.284,0.859,0.591,1.088c0.308,0.229,0.642,0.342,1.004,0.342   c0.558,0,1.025-0.24,1.402-0.721l0.718,0.562c-0.539,0.723-1.261,1.084-2.165,1.084c-0.694,0-1.274-0.246-1.741-0.738   c-0.468-0.492-0.701-1.104-0.701-1.834c0-0.684,0.236-1.275,0.709-1.777c0.474-0.502,1.051-0.754,1.733-0.754   c0.671,0,1.245,0.256,1.725,0.766C144.676,70.227,144.911,70.887,144.903,71.7z M141.025,70.885h2.85   c-0.317-0.664-0.784-0.996-1.402-0.996C141.798,69.889,141.315,70.221,141.025,70.885z"></path>
	<path fill="#1D76B6" d="M147.2,69.086v0.973c0.471-0.738,1.073-1.107,1.807-1.107c0.603,0,1.121,0.25,1.556,0.748   s0.652,1.092,0.652,1.783c0,0.699-0.221,1.303-0.66,1.811c-0.44,0.508-0.96,0.762-1.559,0.762c-0.347,0-0.679-0.094-0.997-0.281   c-0.317-0.188-0.58-0.459-0.787-0.814v3.229h-0.983v-7.102H147.2z M150.186,71.483c0-0.426-0.154-0.797-0.463-1.115   s-0.671-0.479-1.089-0.479c-0.425,0-0.793,0.158-1.104,0.475s-0.466,0.689-0.466,1.119c0,0.441,0.153,0.824,0.46,1.148   s0.669,0.486,1.087,0.486c0.433,0,0.803-0.16,1.111-0.48S150.186,71.932,150.186,71.483z"></path>
	<path fill="#1D76B6" d="M152.325,66.315h0.983v3.562c0.271-0.324,0.524-0.559,0.761-0.705c0.235-0.146,0.522-0.221,0.862-0.221   c0.396,0,0.737,0.158,1.025,0.473c0.289,0.314,0.433,0.689,0.433,1.127v3.369h-0.983v-3.082c0-0.305-0.074-0.549-0.224-0.732   c-0.148-0.184-0.346-0.275-0.591-0.275c-0.354,0-0.656,0.139-0.907,0.416s-0.376,0.613-0.376,1.008v2.666h-0.983V66.315z"></path>
	<path fill="#1D76B6" d="M157.408,71.483c0-0.66,0.252-1.246,0.755-1.76s1.081-0.771,1.733-0.771c0.671,0,1.257,0.254,1.758,0.76   c0.502,0.506,0.752,1.096,0.752,1.771c0,0.68-0.246,1.279-0.737,1.797c-0.492,0.518-1.061,0.775-1.705,0.775   c-0.689,0-1.288-0.256-1.795-0.768S157.408,72.174,157.408,71.483z M161.457,71.487c0-0.412-0.151-0.768-0.453-1.072   c-0.301-0.303-0.659-0.455-1.074-0.455c-0.426,0-0.792,0.154-1.1,0.461c-0.307,0.309-0.46,0.674-0.46,1.102   c0,0.406,0.155,0.764,0.466,1.068c0.312,0.305,0.676,0.457,1.094,0.457c0.407,0,0.764-0.156,1.069-0.469   C161.304,72.266,161.457,71.901,161.457,71.487z"></path>
	<path fill="#1D76B6" d="M164.613,69.086v0.996c0.219-0.398,0.433-0.686,0.642-0.863s0.481-0.268,0.817-0.268   c0.094,0,0.229,0.023,0.406,0.07l-0.299,1.02c-0.189-0.039-0.313-0.059-0.374-0.059c-0.331,0-0.609,0.121-0.834,0.361   c-0.224,0.24-0.336,0.539-0.336,0.898v2.678h-0.983v-4.834H164.613z"></path>
	<path fill="#1D76B6" d="M167.249,67.499c0-0.211,0.075-0.393,0.227-0.547c0.15-0.154,0.33-0.232,0.537-0.232   c0.203,0,0.38,0.078,0.528,0.232c0.149,0.154,0.224,0.336,0.224,0.547c0,0.215-0.074,0.398-0.224,0.551   c-0.148,0.152-0.325,0.229-0.528,0.229c-0.207,0-0.387-0.076-0.537-0.229C167.324,67.897,167.249,67.713,167.249,67.499z    M167.526,69.086h0.973v4.834h-0.973V69.086z"></path>
	<path fill="#1D76B6" d="M173.956,69.086h0.984v4.834h-0.984v-0.961c-0.479,0.73-1.072,1.096-1.78,1.096   c-0.615,0-1.14-0.25-1.575-0.75s-0.652-1.107-0.652-1.822c0-0.676,0.219-1.266,0.658-1.771s0.954-0.76,1.547-0.76   c0.365,0,0.712,0.104,1.04,0.311s0.582,0.477,0.763,0.809V69.086z M174.092,71.518c0-0.441-0.152-0.818-0.459-1.133   c-0.306-0.314-0.672-0.473-1.099-0.473c-0.415,0-0.777,0.156-1.087,0.469s-0.465,0.68-0.465,1.102c0,0.457,0.151,0.846,0.453,1.166   s0.668,0.48,1.099,0.48c0.427,0,0.793-0.158,1.099-0.477C173.939,72.334,174.092,71.956,174.092,71.518z"></path>
</g>
</svg>